<svg width="159" height="137" viewBox="0 0 159 137" fill="none" xmlns="http://www.w3.org/2000/svg">
<path fill-rule="evenodd" clip-rule="evenodd" d="M76.5447 8.77464C68.3635 10.0598 60.7686 13.9545 55.028 19.8077C44.3741 30.6716 41.187 45.9224 46.5735 60.2629C48.4737 65.3221 50.8294 68.9453 54.9088 73.0831C60.2659 78.5164 65.6452 81.6884 72.6903 83.5674C75.7342 84.3794 76.8738 84.4924 82.0955 84.4996C87.3841 84.5072 88.4208 84.4049 91.5319 83.5681C106.426 79.561 117.32 67.7034 119.734 52.871C122.939 33.1807 110.834 14.6091 91.5319 9.605C87.6048 8.58704 80.312 8.18302 76.5447 8.77464ZM88.4398 11.8379C96.6905 13.2754 105.159 18.5161 110.393 25.4237C112.529 28.2421 115.342 34.0568 116.37 37.7786C117.033 40.1772 117.158 41.5682 117.158 46.5694C117.158 53.6164 116.602 56.1744 113.833 61.8732C109.807 70.1602 103.437 76.007 94.5433 79.578C86.3128 82.8828 75.7691 82.5155 67.4691 78.6349C58.5436 74.4615 51.8427 67.0537 48.724 57.9122C47.1266 53.23 46.3384 46.1215 47.0319 42.6535L47.257 41.5282H64.2308H81.2043L86.5112 36.2126C91.0138 31.7021 91.8178 30.7313 91.8178 29.8038C91.8178 28.8787 91.0797 27.9799 87.0168 23.9567C83.5765 20.5502 81.9741 19.2028 81.3638 19.2028C80.7343 19.2028 78.4143 21.2927 72.4815 27.2043C63.6201 36.0336 63.4498 36.3026 65.4187 38.3576L66.3863 39.3677H56.9567C51.7703 39.3677 47.5271 39.295 47.5271 39.2064C47.5271 38.5046 49.6285 32.6366 50.4992 30.9056C53.0807 25.7758 57.6768 20.4998 62.2478 17.4196C66.364 14.6455 72.7371 12.1429 77.2343 11.5347C79.8885 11.1761 85.5131 11.328 88.4398 11.8379ZM77.0153 34.4676C79.37 36.8287 81.0012 38.739 80.8593 38.9687C80.6962 39.2323 78.7603 39.3677 75.1562 39.3677H69.6998L68.1518 37.8485L66.6041 36.3296L69.5705 33.3474C71.2025 31.7075 72.6244 30.3655 72.731 30.3655C72.8376 30.3655 74.7655 32.2113 77.0153 34.4676ZM85.3363 40.9881L82.6536 43.6887H72.6522H62.6507V44.8687C62.6507 45.518 62.9032 46.4092 63.2114 46.8492L63.7717 47.6497H81.4192C92.8956 47.6497 99.3105 47.5194 99.7635 47.277C100.384 46.945 100.46 46.4931 100.46 43.1565C100.46 38.174 100.624 38.2874 93.4389 38.2874H88.0189L85.3363 40.9881ZM91.7015 42.8249C92.0198 43.6545 91.1578 44.0733 89.2972 43.993C87.1536 43.9001 86.7766 43.7413 86.7766 42.93C86.7766 42.3309 87.0611 42.2484 89.1283 42.2484C90.9529 42.2484 91.5301 42.3777 91.7015 42.8249ZM97.5792 42.93C97.5792 43.7644 96.9005 44.0506 94.9391 44.0434C93.1484 44.0366 92.3522 43.612 92.6543 42.8249C92.8257 42.3777 93.4029 42.2484 95.2275 42.2484C97.2948 42.2484 97.5792 42.3309 97.5792 42.93ZM63.0234 50.1466C62.4185 51.2772 62.5542 56.7142 63.2114 57.6519L63.7717 58.4523H81.6839C95.1353 58.4523 99.7034 58.3447 100.028 58.0202C100.618 57.4297 100.618 50.4728 100.028 49.8822C99.703 49.5574 95.0936 49.4501 81.4959 49.4501C63.9697 49.4501 63.3846 49.4721 63.0234 50.1466ZM91.7015 53.6275C92.0198 54.4568 91.1859 54.8396 89.0484 54.8461C87.1403 54.8515 86.5566 54.5036 86.9134 53.5739C87.2138 52.791 91.3983 52.8378 91.7015 53.6275ZM97.3992 53.9512C97.3992 54.5728 97.128 54.6844 95.4187 54.7647C93.2035 54.8691 92.3198 54.4993 92.6608 53.6102C92.8455 53.1288 93.3162 53.0366 95.144 53.1238C97.1234 53.2181 97.3992 53.3193 97.3992 53.9512ZM63.0234 60.9492C62.4185 62.0799 62.5542 67.5168 63.2114 68.4545L63.7717 69.255H81.6839C95.1353 69.255 99.7034 69.1473 100.028 68.8229C100.618 68.2323 100.618 61.2754 100.028 60.6849C99.703 60.3601 95.0936 60.2528 81.4959 60.2528C63.9697 60.2528 63.3846 60.2747 63.0234 60.9492ZM91.6378 64.7539C91.6378 65.3801 91.3612 65.4884 89.5147 65.5835C87.2778 65.6991 86.535 65.3624 86.9041 64.4006C87.0834 63.9339 87.5724 63.8403 89.3826 63.9264C91.362 64.0207 91.6378 64.1219 91.6378 64.7539ZM97.3992 64.7539C97.3992 65.3801 97.1226 65.4884 95.2761 65.5835C93.0393 65.6991 92.2964 65.3624 92.6655 64.4006C92.8448 63.9339 93.3338 63.8403 95.144 63.9264C97.1234 64.0207 97.3992 64.1219 97.3992 64.7539Z" fill="white"/>
<g opacity="0.15" filter="url(#filter0_f_13_11267)">
<ellipse cx="79.5" cy="101.5" rx="55.5" ry="11" fill="white"/>
</g>
<defs>
<filter id="filter0_f_13_11267" x="0" y="66.5" width="159" height="70" filterUnits="userSpaceOnUse" color-interpolation-filters="sRGB">
<feFlood flood-opacity="0" result="BackgroundImageFix"/>
<feBlend mode="normal" in="SourceGraphic" in2="BackgroundImageFix" result="shape"/>
<feGaussianBlur stdDeviation="12" result="effect1_foregroundBlur_13_11267"/>
</filter>
</defs>
</svg>
