<svg width="92" height="93" viewBox="0 0 92 93" fill="none" xmlns="http://www.w3.org/2000/svg">
<path fill-rule="evenodd" clip-rule="evenodd" d="M40.5447 8.77464C32.3635 10.0598 24.7686 13.9545 19.028 19.8077C8.37412 30.6716 5.18699 45.9224 10.5735 60.2629C12.4737 65.3221 14.8294 68.9453 18.9088 73.0831C24.2659 78.5164 29.6452 81.6884 36.6903 83.5674C39.7342 84.3794 40.8738 84.4924 46.0955 84.4996C51.3841 84.5072 52.4208 84.4049 55.5319 83.5681C70.4259 79.561 81.32 67.7034 83.7344 52.871C86.9395 33.1807 74.8337 14.6091 55.5319 9.605C51.6048 8.58704 44.312 8.18302 40.5447 8.77464ZM52.4398 11.8379C60.6905 13.2754 69.1591 18.5161 74.3933 25.4237C76.529 28.2421 79.342 34.0568 80.3704 37.7786C81.033 40.1772 81.1576 41.5682 81.1576 46.5694C81.1576 53.6164 80.602 56.1744 77.8332 61.8732C73.8071 70.1602 67.4371 76.007 58.5433 79.578C50.3128 82.8828 39.7691 82.5155 31.4691 78.6349C22.5436 74.4615 15.8427 67.0537 12.724 57.9122C11.1266 53.23 10.3384 46.1215 11.0319 42.6535L11.257 41.5282H28.2308H45.2043L50.5112 36.2126C55.0138 31.7021 55.8178 30.7313 55.8178 29.8038C55.8178 28.8787 55.0797 27.9799 51.0168 23.9567C47.5765 20.5502 45.9741 19.2028 45.3638 19.2028C44.7343 19.2028 42.4143 21.2927 36.4815 27.2043C27.6201 36.0336 27.4498 36.3026 29.4187 38.3576L30.3863 39.3677H20.9567C15.7703 39.3677 11.5271 39.295 11.5271 39.2064C11.5271 38.5046 13.6285 32.6366 14.4992 30.9056C17.0807 25.7758 21.6768 20.4998 26.2478 17.4196C30.364 14.6455 36.7371 12.1429 41.2343 11.5347C43.8885 11.1761 49.5131 11.328 52.4398 11.8379ZM41.0153 34.4676C43.37 36.8287 45.0012 38.739 44.8593 38.9687C44.6962 39.2323 42.7603 39.3677 39.1562 39.3677H33.6998L32.1518 37.8485L30.6041 36.3296L33.5705 33.3474C35.2025 31.7075 36.6244 30.3655 36.731 30.3655C36.8376 30.3655 38.7655 32.2113 41.0153 34.4676ZM49.3363 40.9881L46.6536 43.6887H36.6522H26.6507V44.8687C26.6507 45.518 26.9032 46.4092 27.2114 46.8492L27.7717 47.6497H45.4192C56.8956 47.6497 63.3105 47.5194 63.7635 47.277C64.3836 46.945 64.4599 46.4931 64.4599 43.1565C64.4599 38.174 64.6238 38.2874 57.4389 38.2874H52.0189L49.3363 40.9881ZM55.7015 42.8249C56.0198 43.6545 55.1578 44.0733 53.2972 43.993C51.1536 43.9001 50.7766 43.7413 50.7766 42.93C50.7766 42.3309 51.0611 42.2484 53.1283 42.2484C54.9529 42.2484 55.5301 42.3777 55.7015 42.8249ZM61.5792 42.93C61.5792 43.7644 60.9005 44.0506 58.9391 44.0434C57.1484 44.0366 56.3522 43.612 56.6543 42.8249C56.8257 42.3777 57.4029 42.2484 59.2275 42.2484C61.2948 42.2484 61.5792 42.3309 61.5792 42.93ZM27.0234 50.1466C26.4185 51.2772 26.5542 56.7142 27.2114 57.6519L27.7717 58.4523H45.6839C59.1353 58.4523 63.7034 58.3447 64.0278 58.0202C64.6184 57.4297 64.6184 50.4728 64.0278 49.8822C63.703 49.5574 59.0936 49.4501 45.4959 49.4501C27.9697 49.4501 27.3846 49.4721 27.0234 50.1466ZM55.7015 53.6275C56.0198 54.4568 55.1859 54.8396 53.0484 54.8461C51.1403 54.8515 50.5566 54.5036 50.9134 53.5739C51.2138 52.791 55.3983 52.8378 55.7015 53.6275ZM61.3992 53.9512C61.3992 54.5728 61.128 54.6844 59.4187 54.7647C57.2035 54.8691 56.3198 54.4993 56.6608 53.6102C56.8455 53.1288 57.3162 53.0366 59.144 53.1238C61.1234 53.2181 61.3992 53.3193 61.3992 53.9512ZM27.0234 60.9492C26.4185 62.0799 26.5542 67.5168 27.2114 68.4545L27.7717 69.255H45.6839C59.1353 69.255 63.7034 69.1473 64.0278 68.8229C64.6184 68.2323 64.6184 61.2754 64.0278 60.6849C63.703 60.3601 59.0936 60.2528 45.4959 60.2528C27.9697 60.2528 27.3846 60.2747 27.0234 60.9492ZM55.6378 64.7539C55.6378 65.3801 55.3612 65.4884 53.5147 65.5835C51.2778 65.6991 50.535 65.3624 50.9041 64.4006C51.0834 63.9339 51.5724 63.8403 53.3826 63.9264C55.362 64.0207 55.6378 64.1219 55.6378 64.7539ZM61.3992 64.7539C61.3992 65.3801 61.1226 65.4884 59.2761 65.5835C57.0393 65.6991 56.2964 65.3624 56.6655 64.4006C56.8448 63.9339 57.3338 63.8403 59.144 63.9264C61.1234 64.0207 61.3992 64.1219 61.3992 64.7539Z" fill="white"/>
</svg>
