<svg width="92" height="92" viewBox="0 0 92 92" fill="none" xmlns="http://www.w3.org/2000/svg">
<path fill-rule="evenodd" clip-rule="evenodd" d="M3.43318 12.8814C3.21429 13.4491 3.13272 28.6207 3.25257 46.5967L3.47064 79.28L35.306 79.4968C54.5354 79.6275 67.1414 79.4083 67.1414 78.9441C67.1414 75.9056 66.1876 75.5564 57.8971 75.5564H49.6631V45.7675V15.9787H67.5575H85.4519V45.7675C85.4519 75.0045 85.4211 75.5564 83.7873 75.5564C81.8522 75.5564 81.6949 76.3135 83.2039 78.3657C83.9238 79.3437 85.1074 79.7426 86.7412 79.558L89.1973 79.28V45.7675V12.2551L46.5146 12.0523C13.0446 11.8943 3.7453 12.073 3.43318 12.8814ZM52.9923 25.9083C52.9923 27.502 53.5475 27.5632 67.9737 27.5632C82.3999 27.5632 82.955 27.502 82.955 25.9083C82.955 24.3146 82.3999 24.2534 67.9737 24.2534C53.5475 24.2534 52.9923 24.3146 52.9923 25.9083ZM39.4675 26.1152C38.9681 27.6046 10.4203 27.6046 9.92094 26.1152C9.65211 25.3133 12.968 25.0808 24.6942 25.0808C36.4205 25.0808 39.7363 25.3133 39.4675 26.1152ZM55.7223 34.6099C53.9961 35.8123 53.9744 35.9935 55.2087 38.9542C55.917 40.6538 56.632 42.1871 56.7984 42.3625C57.1305 42.7117 62.1476 40.7829 62.1476 40.3054C62.1476 40.1424 61.545 38.5115 60.8084 36.6819C59.3511 33.0593 58.4664 32.6993 55.7223 34.6099ZM65.4768 40.7349C65.4768 43.7262 66.4689 44.1126 74.1385 44.1126C82.0886 44.1126 84.6305 43.2231 82.8335 41.0708C81.7665 39.7924 65.4768 39.4779 65.4768 40.7349ZM39.4683 42.2508C39.7363 43.0526 36.4338 43.2851 24.7633 43.2851C11.8386 43.2851 9.71287 43.1072 9.71287 42.0249C9.71287 40.9351 11.7029 40.7953 24.4179 40.9906C35.276 41.1577 39.2128 41.487 39.4683 42.2508ZM59.8588 43.4705C58.8292 43.9628 57.9861 44.6893 57.9861 45.0857C57.9861 45.4812 59.1721 48.614 60.622 52.0472C63.1014 57.9214 63.3844 58.259 65.4077 57.7625C66.5896 57.4721 67.8705 56.9309 68.2542 56.5602C69.0224 55.8147 63.6957 43.0733 62.4872 42.7671C62.0719 42.662 60.8883 42.979 59.8588 43.4705ZM39.2594 58.1796C39.2594 59.2247 37.0871 59.453 25.5265 59.626C12.1631 59.8254 8.88223 59.3579 10.0832 57.4257C10.4919 56.7687 14.973 56.5544 24.963 56.7125C37.0147 56.9028 39.2594 57.1328 39.2594 58.1796ZM52.9923 58.1796C52.9923 59.6152 53.5475 59.8345 57.183 59.8345C61.1156 59.8345 61.3186 59.7327 60.483 58.1796C59.8222 56.9516 58.7402 56.5246 56.2924 56.5246C53.5475 56.5246 52.9923 56.8027 52.9923 58.1796ZM74.6321 58.1796C75.3187 59.4555 76.3749 59.8345 79.2388 59.8345C82.3999 59.8345 82.955 59.5871 82.955 58.1796C82.955 56.724 82.3999 56.5246 78.3483 56.5246C73.9995 56.5246 73.7914 56.6173 74.6321 58.1796ZM65.6849 59.8254C64.1976 60.7273 62.9799 61.6285 62.9799 61.8279C62.9799 62.7257 72.3674 84.2415 73.5259 85.9999C75.2788 88.6594 79.1265 88.6685 80.8743 86.0164C82.3683 83.7484 82.5181 84.3077 76.4739 69.5573C71.3428 57.0352 70.9184 56.6529 65.6849 59.8254Z" fill="url(#paint0_linear_13_11237)"/>
<defs>
<linearGradient id="paint0_linear_13_11237" x1="6.33268" y1="14.7708" x2="69.2033" y2="89.449" gradientUnits="userSpaceOnUse">
<stop stop-color="#0076BE"/>
<stop offset="1" stop-color="#48BF91"/>
</linearGradient>
</defs>
</svg>
