<svg width="160" height="140" viewBox="0 0 160 140" fill="none" xmlns="http://www.w3.org/2000/svg">
<path fill-rule="evenodd" clip-rule="evenodd" d="M39.4332 12.8814C39.2143 13.4491 39.1327 28.6207 39.2526 46.5967L39.4706 79.28L71.306 79.4968C90.5354 79.6275 103.141 79.4083 103.141 78.9441C103.141 75.9056 102.188 75.5564 93.8971 75.5564H85.6631V45.7675V15.9787H103.558H121.452V45.7675C121.452 75.0045 121.421 75.5564 119.787 75.5564C117.852 75.5564 117.695 76.3135 119.204 78.3657C119.924 79.3437 121.107 79.7426 122.741 79.558L125.197 79.28V45.7675V12.2551L82.5146 12.0523C49.0446 11.8943 39.7453 12.073 39.4332 12.8814ZM88.9923 25.9083C88.9923 27.502 89.5475 27.5632 103.974 27.5632C118.4 27.5632 118.955 27.502 118.955 25.9083C118.955 24.3146 118.4 24.2534 103.974 24.2534C89.5475 24.2534 88.9923 24.3146 88.9923 25.9083ZM75.4675 26.1152C74.9681 27.6046 46.4203 27.6046 45.9209 26.1152C45.6521 25.3133 48.968 25.0808 60.6942 25.0808C72.4205 25.0808 75.7363 25.3133 75.4675 26.1152ZM91.7223 34.6099C89.9961 35.8123 89.9744 35.9935 91.2087 38.9542C91.917 40.6538 92.632 42.1871 92.7984 42.3625C93.1305 42.7117 98.1476 40.7829 98.1476 40.3054C98.1476 40.1424 97.545 38.5115 96.8084 36.6819C95.3511 33.0593 94.4664 32.6993 91.7223 34.6099ZM101.477 40.7349C101.477 43.7262 102.469 44.1126 110.139 44.1126C118.089 44.1126 120.63 43.2231 118.834 41.0708C117.767 39.7924 101.477 39.4779 101.477 40.7349ZM75.4683 42.2508C75.7363 43.0526 72.4338 43.2851 60.7633 43.2851C47.8386 43.2851 45.7129 43.1072 45.7129 42.0249C45.7129 40.9351 47.7029 40.7953 60.4179 40.9906C71.276 41.1577 75.2128 41.487 75.4683 42.2508ZM95.8588 43.4705C94.8292 43.9628 93.9861 44.6893 93.9861 45.0857C93.9861 45.4812 95.1721 48.614 96.622 52.0472C99.1014 57.9214 99.3844 58.259 101.408 57.7625C102.59 57.4721 103.87 56.9309 104.254 56.5602C105.022 55.8147 99.6957 43.0733 98.4872 42.7671C98.0719 42.662 96.8883 42.979 95.8588 43.4705ZM75.2594 58.1796C75.2594 59.2247 73.0871 59.453 61.5265 59.626C48.1631 59.8254 44.8822 59.3579 46.0832 57.4257C46.4919 56.7687 50.973 56.5544 60.963 56.7125C73.0147 56.9028 75.2594 57.1328 75.2594 58.1796ZM88.9923 58.1796C88.9923 59.6152 89.5475 59.8345 93.183 59.8345C97.1156 59.8345 97.3186 59.7327 96.483 58.1796C95.8222 56.9516 94.7402 56.5246 92.2924 56.5246C89.5475 56.5246 88.9923 56.8027 88.9923 58.1796ZM110.632 58.1796C111.319 59.4555 112.375 59.8345 115.239 59.8345C118.4 59.8345 118.955 59.5871 118.955 58.1796C118.955 56.724 118.4 56.5246 114.348 56.5246C110 56.5246 109.791 56.6173 110.632 58.1796ZM101.685 59.8254C100.198 60.7273 98.9799 61.6285 98.9799 61.8279C98.9799 62.7257 108.367 84.2415 109.526 85.9999C111.279 88.6594 115.126 88.6685 116.874 86.0164C118.368 83.7484 118.518 84.3077 112.474 69.5573C107.343 57.0352 106.918 56.6529 101.685 59.8254Z" fill="url(#paint0_linear_13_11236)"/>
<g opacity="0.3" filter="url(#filter0_f_13_11236)">
<ellipse cx="79.6973" cy="105" rx="55.5" ry="11" fill="url(#paint1_linear_13_11236)"/>
</g>
<defs>
<filter id="filter0_f_13_11236" x="0.197266" y="70" width="159" height="70" filterUnits="userSpaceOnUse" color-interpolation-filters="sRGB">
<feFlood flood-opacity="0" result="BackgroundImageFix"/>
<feBlend mode="normal" in="SourceGraphic" in2="BackgroundImageFix" result="shape"/>
<feGaussianBlur stdDeviation="12" result="effect1_foregroundBlur_13_11236"/>
</filter>
<linearGradient id="paint0_linear_13_11236" x1="42.3327" y1="14.7708" x2="105.203" y2="89.449" gradientUnits="userSpaceOnUse">
<stop stop-color="#0076BE"/>
<stop offset="1" stop-color="#48BF91"/>
</linearGradient>
<linearGradient id="paint1_linear_13_11236" x1="28.2441" y1="94.8021" x2="34.9788" y2="130.47" gradientUnits="userSpaceOnUse">
<stop stop-color="#0076BE"/>
<stop offset="1" stop-color="#48BF91"/>
</linearGradient>
</defs>
</svg>
