<svg width="92" height="92" viewBox="0 0 92 92" fill="none" xmlns="http://www.w3.org/2000/svg">
<path fill-rule="evenodd" clip-rule="evenodd" d="M26.3554 1.00268C25.5119 1.84645 25.3523 3.9884 25.3523 14.4518C25.3523 26.8804 25.3548 26.9027 27.1083 29.8839L28.8643 32.8697L29.0373 20.2643L29.2103 7.65895H47.3953H65.5802V35.7418V63.8246H47.3819H29.1835L29.1535 50.9001L29.1235 37.9756L27.2679 41.486L25.4123 44.9963L25.3823 59.0984C25.3548 71.9718 25.4538 73.2923 26.5202 74.2567C27.5533 75.1911 29.9447 75.313 47.2727 75.313C66.0061 75.313 66.9129 75.2575 68.1344 74.0365C69.3802 72.7913 69.4115 71.9092 69.4115 37.7988C69.4115 7.18856 69.2876 2.66021 68.4173 1.41882C67.4263 0.00382948 67.3682 0 47.3915 0C30.0315 0 27.2251 0.134032 26.3554 1.00268ZM36.2075 4.1486C36.2075 4.67515 35.7764 5.10597 35.2496 5.10597C34.7229 5.10597 34.2918 4.67515 34.2918 4.1486C34.2918 3.62205 34.7229 3.19123 35.2496 3.19123C35.7764 3.19123 36.2075 3.62205 36.2075 4.1486ZM50.4149 4.29986C48.5715 4.42879 45.5537 4.42879 43.7103 4.29986C41.8662 4.17094 43.3751 4.06563 47.0626 4.06563C50.7502 4.06563 52.2584 4.17094 50.4149 4.29986ZM70.4759 11.2759C70.2416 11.5095 70.0647 16.4642 70.0832 22.2856L70.1158 32.8697L73.8812 25.5298C78.1377 17.2326 78.5534 14.8239 76.1449 12.4171C74.6571 10.9293 71.465 10.2866 70.4759 11.2759ZM15.8087 37.975C12.6217 44.4685 9.69787 51.2556 9.31156 53.0574C8.9246 54.8591 8.72155 59.0958 8.85883 62.4721C9.07274 67.7045 9.40415 69.2395 11.1039 72.8615C13.9812 78.9925 17.172 81.735 27.5776 87.0223L36.5267 91.5698L42.2736 91.5787C47.417 91.587 48.3678 91.3962 51.3281 89.7559C53.1466 88.7487 55.4811 86.8716 56.5155 85.5856C58.1872 83.5055 61.749 77.1812 61.749 76.2914C61.749 76.1044 53.8918 75.9513 44.2882 75.9513C28.1836 75.9513 26.7449 75.8606 25.7705 74.7839C24.8625 73.7812 24.7138 71.8486 24.7138 61.0616C24.7138 50.2861 24.5771 48.5067 23.7489 48.5067C23.0216 48.5067 23.4143 47.2538 25.3453 43.4148C28.3381 37.4644 28.7059 33.6751 26.6179 30.2988C25.5075 28.5028 22.8435 26.1681 21.9035 26.1681C21.7382 26.1681 18.9956 31.4808 15.8087 37.975ZM74.65 27.8084C73.8634 28.3592 72.5001 30.2292 71.6208 31.9634C70.0615 35.0391 70.0264 35.4112 70.1956 47.077L70.3693 59.0377L76.9513 45.985C84.0545 31.8983 84.2652 31.0111 81.1651 28.2424C79.2871 26.5657 76.6736 26.3915 74.65 27.8084ZM49.2522 67.3802C49.8039 67.9323 50.2553 68.7735 50.2553 69.2497C50.2553 70.2568 48.5402 72.1218 47.6137 72.1218C46.1144 72.1218 44.5085 70.6908 44.5085 69.355C44.5085 66.5703 47.2848 65.4145 49.2522 67.3802Z" fill="url(#paint0_linear_13_11229)"/>
<defs>
<linearGradient id="paint0_linear_13_11229" x1="11.5231" y1="3.33881" x2="87.4176" y2="67.9326" gradientUnits="userSpaceOnUse">
<stop stop-color="#0076BE"/>
<stop offset="1" stop-color="#48BF91"/>
</linearGradient>
</defs>
</svg>
