<svg width="159" height="140" viewBox="0 0 159 140" fill="none" xmlns="http://www.w3.org/2000/svg">
<path fill-rule="evenodd" clip-rule="evenodd" d="M62.3554 1.00268C61.5119 1.84645 61.3523 3.9884 61.3523 14.4518C61.3523 26.8804 61.3548 26.9027 63.1083 29.8839L64.8643 32.8697L65.0373 20.2643L65.2103 7.65895H83.3953H101.58V35.7418V63.8246H83.3819H65.1835L65.1535 50.9001L65.1235 37.9756L63.2679 41.486L61.4123 44.9963L61.3823 59.0984C61.3548 71.9718 61.4538 73.2923 62.5202 74.2567C63.5533 75.1911 65.9447 75.313 83.2727 75.313C102.006 75.313 102.913 75.2575 104.134 74.0365C105.38 72.7913 105.411 71.9092 105.411 37.7988C105.411 7.18856 105.288 2.66021 104.417 1.41882C103.426 0.00382948 103.368 0 83.3915 0C66.0315 0 63.2251 0.134032 62.3554 1.00268ZM72.2075 4.1486C72.2075 4.67515 71.7764 5.10597 71.2496 5.10597C70.7229 5.10597 70.2918 4.67515 70.2918 4.1486C70.2918 3.62205 70.7229 3.19123 71.2496 3.19123C71.7764 3.19123 72.2075 3.62205 72.2075 4.1486ZM86.4149 4.29986C84.5715 4.42879 81.5537 4.42879 79.7103 4.29986C77.8662 4.17094 79.3751 4.06563 83.0626 4.06563C86.7502 4.06563 88.2584 4.17094 86.4149 4.29986ZM106.476 11.2759C106.242 11.5095 106.065 16.4642 106.083 22.2856L106.116 32.8697L109.881 25.5298C114.138 17.2326 114.553 14.8239 112.145 12.4171C110.657 10.9293 107.465 10.2866 106.476 11.2759ZM51.8087 37.975C48.6217 44.4685 45.6979 51.2556 45.3116 53.0574C44.9246 54.8591 44.7215 59.0958 44.8588 62.4721C45.0727 67.7045 45.4041 69.2395 47.1039 72.8615C49.9812 78.9925 53.172 81.735 63.5776 87.0223L72.5267 91.5698L78.2736 91.5787C83.417 91.587 84.3678 91.3962 87.3281 89.7559C89.1466 88.7487 91.4811 86.8716 92.5155 85.5856C94.1872 83.5055 97.749 77.1812 97.749 76.2914C97.749 76.1044 89.8918 75.9513 80.2882 75.9513C64.1836 75.9513 62.7449 75.8606 61.7705 74.7839C60.8625 73.7812 60.7138 71.8486 60.7138 61.0616C60.7138 50.2861 60.5771 48.5067 59.7489 48.5067C59.0216 48.5067 59.4143 47.2538 61.3453 43.4148C64.3381 37.4644 64.7059 33.6751 62.6179 30.2988C61.5075 28.5028 58.8435 26.1681 57.9035 26.1681C57.7382 26.1681 54.9956 31.4808 51.8087 37.975ZM110.65 27.8084C109.863 28.3592 108.5 30.2292 107.621 31.9634C106.062 35.0391 106.026 35.4112 106.196 47.077L106.369 59.0377L112.951 45.985C120.054 31.8983 120.265 31.0111 117.165 28.2424C115.287 26.5657 112.674 26.3915 110.65 27.8084ZM85.2522 67.3802C85.8039 67.9323 86.2553 68.7735 86.2553 69.2497C86.2553 70.2568 84.5402 72.1218 83.6137 72.1218C82.1144 72.1218 80.5085 70.6908 80.5085 69.355C80.5085 66.5703 83.2848 65.4145 85.2522 67.3802Z" fill="url(#paint0_linear_13_11228)"/>
<g opacity="0.3" filter="url(#filter0_f_13_11228)">
<ellipse cx="79.5" cy="105" rx="55.5" ry="11" fill="url(#paint1_linear_13_11228)"/>
</g>
<defs>
<filter id="filter0_f_13_11228" x="0" y="70" width="159" height="70" filterUnits="userSpaceOnUse" color-interpolation-filters="sRGB">
<feFlood flood-opacity="0" result="BackgroundImageFix"/>
<feBlend mode="normal" in="SourceGraphic" in2="BackgroundImageFix" result="shape"/>
<feGaussianBlur stdDeviation="12" result="effect1_foregroundBlur_13_11228"/>
</filter>
<linearGradient id="paint0_linear_13_11228" x1="47.5231" y1="3.33881" x2="123.418" y2="67.9326" gradientUnits="userSpaceOnUse">
<stop stop-color="#0076BE"/>
<stop offset="1" stop-color="#48BF91"/>
</linearGradient>
<linearGradient id="paint1_linear_13_11228" x1="28.0469" y1="94.8021" x2="34.7815" y2="130.47" gradientUnits="userSpaceOnUse">
<stop stop-color="#0076BE"/>
<stop offset="1" stop-color="#48BF91"/>
</linearGradient>
</defs>
</svg>
