<svg width="14" height="14" viewBox="0 0 14 14" fill="none" xmlns="http://www.w3.org/2000/svg">
<path d="M6.64235 13.208C6.48235 13.208 6.34635 13.16 6.23435 13.064C6.13835 12.952 6.09035 12.816 6.09035 12.656V7.664H1.17035C1.01035 7.664 0.874352 7.616 0.762352 7.52C0.666352 7.408 0.618352 7.272 0.618352 7.112V6.344C0.618352 6.184 0.666352 6.056 0.762352 5.96C0.874352 5.848 1.01035 5.792 1.17035 5.792H6.09035V0.943999C6.09035 0.783999 6.13835 0.656 6.23435 0.56C6.34635 0.447999 6.48235 0.391999 6.64235 0.391999H7.48235C7.64235 0.391999 7.77035 0.447999 7.86635 0.56C7.97835 0.656 8.03435 0.783999 8.03435 0.943999V5.792H12.9784C13.1384 5.792 13.2664 5.848 13.3624 5.96C13.4744 6.056 13.5304 6.184 13.5304 6.344V7.112C13.5304 7.272 13.4744 7.408 13.3624 7.52C13.2664 7.616 13.1384 7.664 12.9784 7.664H8.03435V12.656C8.03435 12.816 7.97835 12.952 7.86635 13.064C7.77035 13.16 7.64235 13.208 7.48235 13.208H6.64235Z" fill="black"/>
</svg>
