<svg width="159" height="137" viewBox="0 0 159 137" fill="none" xmlns="http://www.w3.org/2000/svg">
<path fill-rule="evenodd" clip-rule="evenodd" d="M74.8511 8.90398C74.3588 9.2488 74.3363 9.41298 74.3363 12.6812V16.0979L73.1439 16.4035C71.71 16.7708 69.6949 17.576 67.525 18.6484L65.9232 19.4402L63.5635 17.1179C61.8815 15.4631 61.0423 14.7959 60.6419 14.7959C59.9113 14.7959 50.2525 24.4082 50.2525 25.1353C50.2525 25.422 51.1635 26.5382 52.5683 27.9728C53.8419 29.2735 54.884 30.3717 54.884 30.4131C54.884 30.4546 54.3771 31.5465 53.7574 32.8398C53.1377 34.1329 52.3823 36.0203 52.0785 37.0341L51.5262 38.8774L48.1237 38.8786C44.8707 38.8797 44.7051 38.9024 44.3606 39.3945C44.0542 39.8317 44 40.9259 44 46.6722V53.4354L44.6102 53.9152C45.1602 54.348 45.534 54.3953 48.4011 54.3953H51.5818L51.8863 55.4952C52.2996 56.9882 53.8308 60.7351 54.4116 61.675C54.6714 62.0954 54.884 62.4999 54.884 62.5743C54.884 62.6484 53.8419 63.7666 52.5683 65.0591C50.8197 66.8336 50.2525 67.558 50.2525 68.0172C50.2525 68.5 51.2666 69.6391 55.1795 73.5521C58.0881 76.4606 60.2841 78.479 60.5402 78.479C60.779 78.479 62.0788 77.3988 63.4289 76.0785L65.8838 73.678L68.1542 74.7748C69.4031 75.3783 71.3048 76.1522 72.3804 76.4947L74.3363 77.1179V80.4257C74.3363 83.3361 74.3873 83.7796 74.7599 84.1167C75.1336 84.4551 75.9826 84.5 82.0102 84.5C87.5356 84.5 88.9228 84.4375 89.2866 84.1719C89.6904 83.8768 89.7435 83.4926 89.8099 80.3905L89.884 76.9375L91.0787 76.6311C92.4828 76.2712 94.7346 75.3611 96.6833 74.3661L98.0727 73.6565L100.528 76.0677C101.881 77.3976 103.177 78.479 103.416 78.479C103.996 78.479 113.936 68.5392 113.936 67.9598C113.936 67.721 112.854 66.4223 111.53 65.0711L109.124 62.6162L110.133 60.6478C110.688 59.5652 111.427 57.7936 111.775 56.711C112.124 55.6284 112.564 54.6125 112.753 54.4532C112.991 54.2535 114.05 54.1637 116.167 54.1637C119.075 54.1637 119.254 54.1368 119.596 53.6489C119.902 53.2117 119.957 52.1193 119.957 46.3902C119.957 40.1509 119.925 39.6175 119.533 39.263C119.18 38.9439 118.551 38.8795 115.77 38.8786L112.43 38.8774L111.878 37.0341C111.574 36.0203 110.816 34.1276 110.194 32.828L109.061 30.465L111.383 28.1062C113.037 26.4249 113.704 25.5857 113.704 25.1853C113.704 24.4313 104.09 14.7959 103.338 14.7959C103.008 14.7959 102.041 15.6153 100.496 17.2029L98.1531 19.6097L96.1641 18.5947C95.0701 18.0366 93.1502 17.2439 91.8976 16.8333L89.6203 16.087V12.6756C89.6203 9.41298 89.5978 9.2488 89.1055 8.90398C88.3369 8.36534 75.6197 8.36534 74.8511 8.90398ZM87.0729 14.3328C87.0729 18.0806 87.167 18.2842 89.0865 18.6959C90.9951 19.1053 94.0795 20.3151 95.9902 21.4039C96.9881 21.9727 98.0232 22.4379 98.2904 22.4379C98.5963 22.4379 99.5889 21.6223 100.967 20.238C102.172 19.028 103.253 18.038 103.37 18.038C103.486 18.038 105.181 19.622 107.136 21.5579L110.691 25.0776L108.376 27.4295C107.103 28.7229 106.062 29.9426 106.062 30.1399C106.062 30.3372 106.405 31.1079 106.824 31.8524C108.248 34.386 109.999 38.8272 109.999 39.9086C109.999 40.1184 110.255 40.5459 110.567 40.8585C111.115 41.4062 111.251 41.4271 114.273 41.4271H117.409V46.4888V51.5504L115.986 51.6993C115.203 51.781 113.705 51.8479 112.656 51.8479C110.603 51.8479 110.402 51.9498 110.138 53.1216C109.537 55.7847 108.138 59.3385 106.946 61.2267C105.799 63.0437 105.776 62.9714 108.353 65.5901L110.683 67.9581L107.037 71.5985L103.392 75.2389L101.218 73.0556C100.022 71.8548 98.8578 70.8239 98.6308 70.7646C98.4039 70.7051 97.925 70.8135 97.5665 71.0054C94.6994 72.5396 92.5423 73.4807 90.3949 74.134C89.0135 74.5541 87.7533 74.9802 87.594 75.0812C87.3842 75.2138 87.3045 76.1853 87.3045 78.6085V81.9527H82.0941H76.8836V78.8521C76.8836 75.2472 76.7729 75.0052 74.9153 74.5448C72.27 73.8895 70.0286 72.9692 66.8449 71.2308C65.8213 70.672 65.6673 70.6463 65.1081 70.9422C64.7707 71.1208 63.6105 72.1608 62.5299 73.2531L60.5652 75.2395L56.9193 71.599L53.2734 67.9581L55.5838 65.6102C56.8547 64.3189 57.8945 63.1328 57.8945 62.9749C57.8945 62.8167 57.433 61.8378 56.8686 60.7992C55.6461 58.5488 55.0308 57.0392 54.2585 54.3953C53.9422 53.3126 53.5761 52.2967 53.4448 52.1374C53.2741 51.9304 52.2587 51.8479 49.8769 51.8479H46.5473V46.6375V41.4271H49.5427C53.2431 41.4271 53.6273 41.3015 53.9399 39.9899C54.6191 37.1395 55.7522 34.2649 57.1312 31.8936C57.5511 31.1715 57.8945 30.3879 57.8945 30.1521C57.8945 29.9164 56.9045 28.7374 55.6945 27.5326C54.4846 26.3277 53.4946 25.2518 53.4946 25.1416C53.4946 25.0316 55.0776 23.336 57.0124 21.3736L60.5303 17.8055L62.884 20.1217C64.1785 21.3956 65.4112 22.4379 65.6233 22.4379C65.8354 22.4379 66.3975 22.1968 66.8727 21.9025C68.9087 20.6402 74.2497 18.5011 75.3652 18.5011C75.575 18.5011 76.0025 18.2453 76.3151 17.9326C76.8628 17.3852 76.8836 17.2492 76.8836 14.2274V11.0907H81.9783H87.0729V14.3328ZM78.852 20.957C67.7357 22.5996 59.3136 30.2918 56.82 41.0797C56.2209 43.6722 56.2209 49.3712 56.82 51.9637C59.0927 61.7955 66.3546 69.1612 76.1583 71.5783C79.0653 72.2953 84.9591 72.3036 87.7834 71.595C92.8489 70.3244 96.7375 68.1038 100.319 64.4366C103.801 60.8722 105.828 57.2228 107.037 52.3417C107.718 49.5949 107.769 43.8046 107.138 41.0797C104.872 31.3084 97.5758 23.876 87.9041 21.4873C86.0769 21.0362 80.5201 20.7106 78.852 20.957ZM85.884 23.7195C94.1154 25.281 100.606 30.5759 103.517 38.1044C105.931 44.3502 105.602 50.9705 102.576 57.0266C98.0093 66.1644 87.6533 71.2247 77.6312 69.2156C67.9993 67.2847 61.0275 60.1869 59.176 50.4275C57.4473 41.3147 62.0561 31.357 70.2127 26.5822C74.8439 23.8711 80.8753 22.7693 85.884 23.7195ZM80.8797 25.6952C79.8105 26.0208 78.5725 27.3515 78.2566 28.5144C78.1091 29.057 77.9558 29.6204 77.9158 29.7663C77.8757 29.9125 77.2884 30.1051 76.6106 30.1945C75.0341 30.4025 73.5221 31.0588 73.19 31.6791C72.9626 32.1041 72.7192 32.1641 71.2184 32.1641C68.8214 32.1641 68.7785 32.2254 68.7785 35.6541C68.7785 38.1079 68.8304 38.4685 69.2417 38.8797C69.8185 39.4566 70.4433 39.4712 70.9426 38.9193C71.2372 38.594 71.3258 38.0315 71.3258 36.4878V34.4798H72.1963C72.8163 34.4798 73.1504 34.6132 73.3563 34.943C73.637 35.3925 73.8963 35.4061 82.2099 35.4061C90.5234 35.4061 90.7828 35.3925 91.0634 34.943C91.2566 34.6338 91.6035 34.4798 92.1076 34.4798H92.8623V39.0597C92.8623 44.0408 93.0045 44.6691 94.1325 44.6691C95.3529 44.6691 95.4096 44.3954 95.4096 38.5007C95.4096 35.1931 95.3156 32.8843 95.17 32.6119C94.9657 32.2303 94.6735 32.1641 93.1942 32.1641C91.8753 32.1641 91.4268 32.0816 91.3267 31.8213C91.0942 31.2155 89.7076 30.5407 88.0946 30.2482L86.5241 29.9636L86.2555 28.9104C85.91 27.5557 85.3609 26.7309 84.4158 26.1468C83.5071 25.5853 81.9107 25.3812 80.8797 25.6952ZM83.295 28.4992C83.6141 28.799 83.8309 29.2719 83.8309 29.6686C83.8309 30.4259 84.3116 31.4668 84.8792 31.9376C85.0904 32.1129 85.8528 32.3831 86.5734 32.5383C87.7301 32.787 87.2195 32.8192 82.2099 32.8134C78.0563 32.8088 76.8369 32.7495 77.6583 32.5922C78.2752 32.4741 79.0218 32.2192 79.3173 32.0256C79.9344 31.6213 80.5888 30.3712 80.5888 29.5966C80.5888 28.8789 81.4654 27.9957 82.1774 27.9957C82.4972 27.9957 83.0002 28.2222 83.295 28.4992ZM67.9844 40.4014C67.7844 40.6017 67.6206 40.9602 67.6206 41.1983C67.6206 41.7487 67.1952 42.0206 66.8595 41.6848C66.7177 41.5431 66.2951 41.4271 65.9202 41.4271C64.5229 41.4271 62.2669 44.4269 63.2207 45.0165C63.6135 45.2592 63.4764 45.827 63.025 45.827C62.1717 45.827 61.8313 46.5618 61.8313 48.4042C61.8313 50.2691 62.0367 50.6901 62.9468 50.6901C63.4206 50.6901 63.4815 50.77 63.3448 51.2111C62.8743 52.7288 62.8866 52.7717 64.1662 54.0673C65.4563 55.3737 66.0135 55.564 66.8439 54.9823C67.4018 54.5916 67.6206 54.7227 67.6206 55.4475C67.6206 56.3032 68.1271 56.5051 70.0881 56.4317L71.9048 56.3636L72.3353 55.4823C72.7322 54.6699 72.797 54.6292 73.1641 54.9612C73.8375 55.5707 74.4192 55.3709 75.6757 54.0986C76.8584 52.9011 77.2465 51.8681 76.6521 51.5006C76.2253 51.2368 76.4145 50.9598 77.1291 50.8028C77.973 50.6176 78.2731 49.9803 78.2731 48.3743C78.2731 46.7556 77.9549 46.0759 77.1192 45.9087C76.4362 45.7723 76.1903 45.302 76.6521 45.0165C77.6543 44.397 75.4076 41.4271 73.9368 41.4271C73.5348 41.4271 73.1414 41.5313 73.0627 41.6586C72.8012 42.0815 72.4837 41.8983 72.4837 41.3245C72.4837 40.4387 71.6788 40.0376 69.9014 40.0376C68.7984 40.0376 68.2431 40.143 67.9844 40.4014ZM71.3858 44.0978C71.7374 44.1856 72.0822 44.35 72.1521 44.4632C72.2223 44.5765 72.5826 44.6691 72.9534 44.6691C73.416 44.6691 73.5904 44.7648 73.5098 44.9746C73.3864 45.2962 74.2759 47.3961 74.8062 48.0351C75.0227 48.296 75.0405 48.457 74.865 48.5656C74.5028 48.79 73.3753 51.4235 73.501 51.7514C73.5675 51.9244 73.4468 51.9853 73.1775 51.9149C72.9413 51.853 72.4541 51.951 72.0949 52.1323C69.8012 53.2909 70.1233 53.2575 68.5349 52.501C67.7394 52.1221 66.9032 51.8604 66.6772 51.9195C66.3945 51.9934 66.3048 51.9253 66.3907 51.7013C66.5339 51.3285 65.6629 49.1543 65.1277 48.548C64.9309 48.325 64.8746 48.1427 65.0027 48.1427C65.319 48.1427 66.5429 45.2177 66.3544 44.9125C66.2634 44.7654 66.4609 44.6638 66.8544 44.6557C67.2121 44.6483 68.078 44.3574 68.7785 44.0094C69.8051 43.4994 70.1196 43.4311 70.3995 43.6574C70.5906 43.8118 71.0345 44.01 71.3858 44.0978ZM91.0141 50.1116L85.5543 55.5541L84.1972 54.1827C83.4506 53.4284 82.6346 52.7576 82.3835 52.692C81.9056 52.567 80.8204 53.4421 80.8204 53.9527C80.8204 54.4756 85.0464 58.5636 85.5872 58.5636C86.3358 58.5636 98.1885 46.6887 98.1885 45.9386C98.1885 45.2629 97.6172 44.6691 96.9672 44.6691C96.6326 44.6691 94.717 46.4205 91.0141 50.1116ZM93.2229 53.0574C92.9304 53.475 92.8623 54.3265 92.8623 57.5732V61.5741H82.0941H71.3258V60.1131C71.3258 59.2641 71.1971 58.4761 71.0183 58.2315C70.62 57.6869 69.4844 57.6869 69.0861 58.2315C68.6259 58.8607 68.6662 62.9316 69.1391 63.6066L69.4994 64.1214H82.0906C93.2284 64.1214 94.7239 64.0795 95.0458 63.7576C95.3543 63.4489 95.4096 62.6264 95.4096 58.3515C95.4096 53.7607 95.3717 53.2749 94.9861 52.9259C94.3965 52.3921 93.6497 52.4479 93.2229 53.0574Z" fill="white"/>
<g opacity="0.15" filter="url(#filter0_f_13_11285)">
<ellipse cx="79.5" cy="101.5" rx="55.5" ry="11" fill="white"/>
</g>
<defs>
<filter id="filter0_f_13_11285" x="0" y="66.5" width="159" height="70" filterUnits="userSpaceOnUse" color-interpolation-filters="sRGB">
<feFlood flood-opacity="0" result="BackgroundImageFix"/>
<feBlend mode="normal" in="SourceGraphic" in2="BackgroundImageFix" result="shape"/>
<feGaussianBlur stdDeviation="12" result="effect1_foregroundBlur_13_11285"/>
</filter>
</defs>
</svg>
