<svg width="92" height="93" viewBox="0 0 92 93" fill="none" xmlns="http://www.w3.org/2000/svg">
<path fill-rule="evenodd" clip-rule="evenodd" d="M38.8511 8.90398C38.3588 9.2488 38.3363 9.41298 38.3363 12.6812V16.0979L37.1439 16.4035C35.71 16.7708 33.6949 17.576 31.525 18.6484L29.9232 19.4402L27.5635 17.1179C25.8815 15.4631 25.0423 14.7959 24.6419 14.7959C23.9113 14.7959 14.2525 24.4082 14.2525 25.1353C14.2525 25.422 15.1635 26.5382 16.5683 27.9728C17.8419 29.2735 18.884 30.3717 18.884 30.4131C18.884 30.4546 18.3771 31.5465 17.7574 32.8398C17.1377 34.1329 16.3823 36.0203 16.0785 37.0341L15.5262 38.8774L12.1237 38.8786C8.87072 38.8797 8.70515 38.9024 8.36056 39.3945C8.05419 39.8317 8 40.9259 8 46.6722V53.4354L8.6102 53.9152C9.16019 54.348 9.53395 54.3953 12.4011 54.3953H15.5818L15.8863 55.4952C16.2996 56.9882 17.8308 60.7351 18.4116 61.675C18.6714 62.0954 18.884 62.4999 18.884 62.5743C18.884 62.6484 17.8419 63.7666 16.5683 65.0591C14.8197 66.8336 14.2525 67.558 14.2525 68.0172C14.2525 68.5 15.2666 69.6391 19.1795 73.5521C22.0881 76.4606 24.2841 78.479 24.5402 78.479C24.779 78.479 26.0788 77.3988 27.4289 76.0785L29.8838 73.678L32.1542 74.7748C33.4031 75.3783 35.3048 76.1522 36.3804 76.4947L38.3363 77.1179V80.4257C38.3363 83.3361 38.3873 83.7796 38.7599 84.1167C39.1336 84.4551 39.9826 84.5 46.0102 84.5C51.5356 84.5 52.9228 84.4375 53.2866 84.1719C53.6904 83.8768 53.7435 83.4926 53.8099 80.3905L53.884 76.9375L55.0787 76.6311C56.4828 76.2712 58.7346 75.3611 60.6833 74.3661L62.0727 73.6565L64.5277 76.0677C65.8812 77.3976 67.1771 78.479 67.4163 78.479C67.9957 78.479 77.9356 68.5392 77.9356 67.9598C77.9356 67.721 76.8542 66.4223 75.5298 65.0711L73.1237 62.6162L74.1329 60.6478C74.688 59.5652 75.4272 57.7936 75.7753 56.711C76.1236 55.6284 76.5636 54.6125 76.7532 54.4532C76.9908 54.2535 78.0498 54.1637 80.1666 54.1637C83.0754 54.1637 83.2544 54.1368 83.596 53.6489C83.9024 53.2117 83.9566 52.1193 83.9566 46.3902C83.9566 40.1509 83.9249 39.6175 83.533 39.263C83.1803 38.9439 82.5514 38.8795 79.7699 38.8786L76.4304 38.8774L75.8781 37.0341C75.5743 36.0203 74.8163 34.1276 74.1936 32.828L73.0614 30.465L75.3828 28.1062C77.0371 26.4249 77.7041 25.5857 77.7041 25.1853C77.7041 24.4313 68.0902 14.7959 67.3378 14.7959C67.0083 14.7959 66.0406 15.6153 64.4957 17.2029L62.1531 19.6097L60.1641 18.5947C59.0701 18.0366 57.1502 17.2439 55.8976 16.8333L53.6203 16.087V12.6756C53.6203 9.41298 53.5978 9.2488 53.1055 8.90398C52.3369 8.36534 39.6197 8.36534 38.8511 8.90398ZM51.0729 14.3328C51.0729 18.0806 51.167 18.2842 53.0865 18.6959C54.9951 19.1053 58.0795 20.3151 59.9902 21.4039C60.9881 21.9727 62.0232 22.4379 62.2904 22.4379C62.5963 22.4379 63.5889 21.6223 64.9674 20.238C66.1723 19.028 67.2533 18.038 67.3698 18.038C67.486 18.038 69.1807 19.622 71.1359 21.5579L74.6906 25.0776L72.3762 27.4295C71.1035 28.7229 70.0621 29.9426 70.0621 30.1399C70.0621 30.3372 70.4046 31.1079 70.8235 31.8524C72.2484 34.386 73.9989 38.8272 73.9989 39.9086C73.9989 40.1184 74.2547 40.5459 74.5674 40.8585C75.1148 41.4062 75.2507 41.4271 78.2726 41.4271H81.4093V46.4888V51.5504L79.9858 51.6993C79.203 51.781 77.7048 51.8479 76.6564 51.8479C74.6033 51.8479 74.4018 51.9498 74.1376 53.1216C73.5371 55.7847 72.1377 59.3385 70.946 61.2267C69.7992 63.0437 69.7759 62.9714 72.3528 65.5901L74.6832 67.9581L71.0375 71.5985L67.3918 75.2389L65.2175 73.0556C64.0217 71.8548 62.8578 70.8239 62.6308 70.7646C62.4039 70.7051 61.925 70.8135 61.5665 71.0054C58.6994 72.5396 56.5423 73.4807 54.3949 74.134C53.0135 74.5541 51.7533 74.9802 51.594 75.0812C51.3842 75.2138 51.3045 76.1853 51.3045 78.6085V81.9527H46.0941H40.8836V78.8521C40.8836 75.2472 40.7729 75.0052 38.9153 74.5448C36.27 73.8895 34.0286 72.9692 30.8449 71.2308C29.8213 70.672 29.6673 70.6463 29.1081 70.9422C28.7707 71.1208 27.6105 72.1608 26.5299 73.2531L24.5652 75.2395L20.9193 71.599L17.2734 67.9581L19.5838 65.6102C20.8547 64.3189 21.8945 63.1328 21.8945 62.9749C21.8945 62.8167 21.433 61.8378 20.8686 60.7992C19.6461 58.5488 19.0308 57.0392 18.2585 54.3953C17.9422 53.3126 17.5761 52.2967 17.4448 52.1374C17.2741 51.9304 16.2587 51.8479 13.8769 51.8479H10.5473V46.6375V41.4271H13.5427C17.2431 41.4271 17.6273 41.3015 17.9399 39.9899C18.6191 37.1395 19.7522 34.2649 21.1312 31.8936C21.5511 31.1715 21.8945 30.3879 21.8945 30.1521C21.8945 29.9164 20.9045 28.7374 19.6945 27.5326C18.4846 26.3277 17.4946 25.2518 17.4946 25.1416C17.4946 25.0316 19.0776 23.336 21.0124 21.3736L24.5303 17.8055L26.884 20.1217C28.1785 21.3956 29.4112 22.4379 29.6233 22.4379C29.8354 22.4379 30.3975 22.1968 30.8727 21.9025C32.9087 20.6402 38.2497 18.5011 39.3652 18.5011C39.575 18.5011 40.0025 18.2453 40.3151 17.9326C40.8628 17.3852 40.8836 17.2492 40.8836 14.2274V11.0907H45.9783H51.0729V14.3328ZM42.852 20.957C31.7357 22.5996 23.3136 30.2918 20.82 41.0797C20.2209 43.6722 20.2209 49.3712 20.82 51.9637C23.0927 61.7955 30.3546 69.1612 40.1583 71.5783C43.0653 72.2953 48.9591 72.3036 51.7834 71.595C56.8489 70.3244 60.7375 68.1038 64.3195 64.4366C67.8012 60.8722 69.828 57.2228 71.0375 52.3417C71.7178 49.5949 71.7695 43.8046 71.1377 41.0797C68.8722 31.3084 61.5758 23.876 51.9041 21.4873C50.0769 21.0362 44.5201 20.7106 42.852 20.957ZM49.884 23.7195C58.1154 25.281 64.6059 30.5759 67.5166 38.1044C69.9312 44.3502 69.6022 50.9705 66.5757 57.0266C62.0093 66.1644 51.6533 71.2247 41.6312 69.2156C31.9993 67.2847 25.0275 60.1869 23.176 50.4275C21.4473 41.3147 26.0561 31.357 34.2127 26.5822C38.8439 23.8711 44.8753 22.7693 49.884 23.7195ZM44.8797 25.6952C43.8105 26.0208 42.5725 27.3515 42.2566 28.5144C42.1091 29.057 41.9558 29.6204 41.9158 29.7663C41.8757 29.9125 41.2884 30.1051 40.6106 30.1945C39.0341 30.4025 37.5221 31.0588 37.19 31.6791C36.9626 32.1041 36.7192 32.1641 35.2184 32.1641C32.8214 32.1641 32.7785 32.2254 32.7785 35.6541C32.7785 38.1079 32.8304 38.4685 33.2417 38.8797C33.8185 39.4566 34.4433 39.4712 34.9426 38.9193C35.2372 38.594 35.3258 38.0315 35.3258 36.4878V34.4798H36.1963C36.8163 34.4798 37.1504 34.6132 37.3563 34.943C37.637 35.3925 37.8963 35.4061 46.2099 35.4061C54.5234 35.4061 54.7828 35.3925 55.0634 34.943C55.2566 34.6338 55.6035 34.4798 56.1076 34.4798H56.8623V39.0597C56.8623 44.0408 57.0045 44.6691 58.1325 44.6691C59.3529 44.6691 59.4096 44.3954 59.4096 38.5007C59.4096 35.1931 59.3156 32.8843 59.17 32.6119C58.9657 32.2303 58.6735 32.1641 57.1942 32.1641C55.8753 32.1641 55.4268 32.0816 55.3267 31.8213C55.0942 31.2155 53.7076 30.5407 52.0946 30.2482L50.5241 29.9636L50.2555 28.9104C49.91 27.5557 49.3609 26.7309 48.4158 26.1468C47.5071 25.5853 45.9107 25.3812 44.8797 25.6952ZM47.295 28.4992C47.6141 28.799 47.8309 29.2719 47.8309 29.6686C47.8309 30.4259 48.3116 31.4668 48.8792 31.9376C49.0904 32.1129 49.8528 32.3831 50.5734 32.5383C51.7301 32.787 51.2195 32.8192 46.2099 32.8134C42.0563 32.8088 40.8369 32.7495 41.6583 32.5922C42.2752 32.4741 43.0218 32.2192 43.3173 32.0256C43.9344 31.6213 44.5888 30.3712 44.5888 29.5966C44.5888 28.8789 45.4654 27.9957 46.1774 27.9957C46.4972 27.9957 47.0002 28.2222 47.295 28.4992ZM31.9844 40.4014C31.7844 40.6017 31.6206 40.9602 31.6206 41.1983C31.6206 41.7487 31.1952 42.0206 30.8595 41.6848C30.7177 41.5431 30.2951 41.4271 29.9202 41.4271C28.5229 41.4271 26.2669 44.4269 27.2207 45.0165C27.6135 45.2592 27.4764 45.827 27.025 45.827C26.1717 45.827 25.8313 46.5618 25.8313 48.4042C25.8313 50.2691 26.0367 50.6901 26.9468 50.6901C27.4206 50.6901 27.4815 50.77 27.3448 51.2111C26.8743 52.7288 26.8866 52.7717 28.1662 54.0673C29.4563 55.3737 30.0135 55.564 30.8439 54.9823C31.4018 54.5916 31.6206 54.7227 31.6206 55.4475C31.6206 56.3032 32.1271 56.5051 34.0881 56.4317L35.9048 56.3636L36.3353 55.4823C36.7322 54.6699 36.797 54.6292 37.1641 54.9612C37.8375 55.5707 38.4192 55.3709 39.6757 54.0986C40.8584 52.9011 41.2465 51.8681 40.6521 51.5006C40.2253 51.2368 40.4145 50.9598 41.1291 50.8028C41.973 50.6176 42.2731 49.9803 42.2731 48.3743C42.2731 46.7556 41.9549 46.0759 41.1192 45.9087C40.4362 45.7723 40.1903 45.302 40.6521 45.0165C41.6543 44.397 39.4076 41.4271 37.9368 41.4271C37.5348 41.4271 37.1414 41.5313 37.0627 41.6586C36.8012 42.0815 36.4837 41.8983 36.4837 41.3245C36.4837 40.4387 35.6788 40.0376 33.9014 40.0376C32.7984 40.0376 32.2431 40.143 31.9844 40.4014ZM35.3858 44.0978C35.7374 44.1856 36.0822 44.35 36.1521 44.4632C36.2223 44.5765 36.5826 44.6691 36.9534 44.6691C37.416 44.6691 37.5904 44.7648 37.5098 44.9746C37.3864 45.2962 38.2759 47.3961 38.8062 48.0351C39.0227 48.296 39.0405 48.457 38.865 48.5656C38.5028 48.79 37.3753 51.4235 37.501 51.7514C37.5675 51.9244 37.4468 51.9853 37.1775 51.9149C36.9413 51.853 36.4541 51.951 36.0949 52.1323C33.8012 53.2909 34.1233 53.2575 32.5349 52.501C31.7394 52.1221 30.9032 51.8604 30.6772 51.9195C30.3945 51.9934 30.3048 51.9253 30.3907 51.7013C30.5339 51.3285 29.6629 49.1543 29.1277 48.548C28.9309 48.325 28.8746 48.1427 29.0027 48.1427C29.319 48.1427 30.5429 45.2177 30.3544 44.9125C30.2634 44.7654 30.4609 44.6638 30.8544 44.6557C31.2121 44.6483 32.078 44.3574 32.7785 44.0094C33.8051 43.4994 34.1196 43.4311 34.3995 43.6574C34.5906 43.8118 35.0345 44.01 35.3858 44.0978ZM55.0141 50.1116L49.5543 55.5541L48.1972 54.1827C47.4506 53.4284 46.6346 52.7576 46.3835 52.692C45.9056 52.567 44.8204 53.4421 44.8204 53.9527C44.8204 54.4756 49.0464 58.5636 49.5872 58.5636C50.3358 58.5636 62.1885 46.6887 62.1885 45.9386C62.1885 45.2629 61.6172 44.6691 60.9672 44.6691C60.6326 44.6691 58.717 46.4205 55.0141 50.1116ZM57.2229 53.0574C56.9304 53.475 56.8623 54.3265 56.8623 57.5732V61.5741H46.0941H35.3258V60.1131C35.3258 59.2641 35.1971 58.4761 35.0183 58.2315C34.62 57.6869 33.4844 57.6869 33.0861 58.2315C32.6259 58.8607 32.6662 62.9316 33.1391 63.6066L33.4994 64.1214H46.0906C57.2284 64.1214 58.7239 64.0795 59.0458 63.7576C59.3543 63.4489 59.4096 62.6264 59.4096 58.3515C59.4096 53.7607 59.3717 53.2749 58.9861 52.9259C58.3965 52.3921 57.6497 52.4479 57.2229 53.0574Z" fill="white"/>
</svg>
