<svg width="52" height="52" viewBox="0 0 52 52" fill="none" xmlns="http://www.w3.org/2000/svg">
<rect width="52" height="52" rx="26" fill="white"/>
<path d="M21.6001 33.0669C21.3556 32.8224 21.2334 32.5113 21.2334 32.1336C21.2334 31.7558 21.3556 31.4447 21.6001 31.2002L26.8001 26.0002L21.6001 20.8002C21.3556 20.5558 21.2334 20.2447 21.2334 19.8669C21.2334 19.4891 21.3556 19.178 21.6001 18.9336C21.8445 18.6891 22.1556 18.5669 22.5334 18.5669C22.9112 18.5669 23.2223 18.6891 23.4667 18.9336L29.6001 25.0669C29.7334 25.2002 29.8281 25.3447 29.8841 25.5002C29.9401 25.6558 29.9676 25.8225 29.9667 26.0002C29.9667 26.178 29.9387 26.3447 29.8827 26.5002C29.8267 26.6558 29.7325 26.8002 29.6001 26.9336L23.4667 33.0669C23.2223 33.3113 22.9112 33.4336 22.5334 33.4336C22.1556 33.4336 21.8445 33.3113 21.6001 33.0669Z" fill="black"/>
</svg>
