<svg width="93" height="92" viewBox="0 0 93 92" fill="none" xmlns="http://www.w3.org/2000/svg">
<path fill-rule="evenodd" clip-rule="evenodd" d="M43.9698 4.26476C38.7863 12.4935 36.5958 14.815 32.021 16.9288C27.8048 18.8769 23.7214 19.546 16.94 19.4006L12.4151 19.3036L12.1 20.7743C11.0486 25.6834 10.1663 35.923 10.4474 39.954C11.3078 52.2964 14.0118 61.1949 19.4758 69.6646C21.2723 72.4497 24.6842 76.8862 25.043 76.9042C25.1663 76.9101 25.2675 76.1745 25.2675 75.2692V73.6231H27.3732H29.4789L27.4687 71.1541C21.0141 63.2273 17.4574 54.7065 16.2726 44.3325C15.8631 40.7477 16.0373 31.7109 16.5913 27.8017L16.9561 25.2264L20.8875 25.0495C26.757 24.7853 30.8577 23.8306 34.9941 21.7646C39.2331 19.6475 43.7074 15.6596 45.6494 12.2678C46.2087 11.2916 46.7334 10.4925 46.8157 10.4925C46.898 10.4925 47.4298 11.3035 47.9972 12.2945C49.9246 15.6596 54.4141 19.6553 58.6373 21.7646C62.7737 23.8306 66.8744 24.7853 72.7439 25.0495L76.6753 25.2264L77.0401 27.8017C77.594 31.7109 77.7682 40.7477 77.3588 44.3325C76.174 54.7065 72.6173 63.2273 66.1627 71.1541L64.1524 73.6231H66.2582H68.3639V75.2692C68.3639 76.1745 68.4651 76.9101 68.5884 76.9042C68.7117 76.8979 69.632 75.854 70.6331 74.5847C78.5362 64.5624 82.1668 54.5446 83.184 39.954C83.4654 35.9197 82.5807 25.6619 81.5302 20.7743L81.2142 19.3036L75.163 19.2875C68.3008 19.2689 65.6952 18.8161 61.6211 16.9339C57.0346 14.8147 54.8484 12.4986 49.6616 4.26476C48.184 1.91899 46.9034 0 46.8157 0C46.728 0 45.4474 1.91899 43.9698 4.26476ZM46.0085 24.1669C44.9497 25.8369 43.0489 28.283 42.1768 29.0982C41.0743 30.1289 37.5984 31.8288 35.6307 32.2999C34.8283 32.4917 32.9308 32.6489 31.4141 32.6489H28.6562L28.2848 34.2063C27.6988 36.6652 27.5258 42.7254 27.9529 45.849C29.0246 53.6916 32.985 61.2503 38.3562 65.7045C40.2222 67.2517 45.8218 70.331 46.7696 70.331C47.4014 70.331 52.0025 68.1032 53.5037 67.0704C55.4823 65.7093 58.4921 62.6108 60.2238 60.1528C64.8758 53.5501 67.0612 43.0435 65.4208 35.1655L64.9222 32.7713L62.079 32.6938C58.8213 32.6049 56.4825 32.0823 54.2274 30.9406C51.7652 29.6935 50.894 28.8941 48.8658 26.0204C47.8267 24.5482 46.8761 23.3439 46.7534 23.3439C46.6307 23.3439 46.2955 23.7141 46.0085 24.1669ZM58.3799 41.9918C58.0734 42.1879 57.2528 42.7176 56.5558 43.1686C54.1478 44.7276 48.7338 50.7638 45.8759 55.0755L45.3854 55.8159L44.6869 54.9181C43.6475 53.5824 41.124 51.1821 39.9322 50.3953C39.3561 50.015 38.1656 49.5205 37.2866 49.2964L35.6884 48.8888L37.5565 48.0505C39.7972 47.0449 41.7094 47.1086 43.9836 48.2645L45.4201 48.9944L47.0919 47.2858C50.2107 44.0985 54.9232 41.7371 58.338 41.6503C58.9129 41.636 58.9144 41.6495 58.3799 41.9918ZM28.8588 82.003V87.3901H46.8157H64.7726V82.003V76.616H46.8157H28.8588V82.003ZM47.545 79.5725C48.0266 80.5033 48.5509 80.8059 49.6834 80.8059C50.6426 80.8059 50.6115 81.5008 49.6232 82.1485C48.928 82.604 48.8562 82.809 48.9867 83.9666C49.0675 84.6843 49.063 85.3424 48.9762 85.4289C48.8897 85.5157 48.3681 85.308 47.8174 84.9674L46.8157 84.3485L45.814 84.9674C44.6106 85.7111 44.3742 85.5474 44.6004 84.1267C44.7432 83.2313 44.642 82.9287 43.998 82.325C43.0268 81.4143 43.0067 80.8059 43.948 80.8059C45.0805 80.8059 45.6048 80.5033 46.0863 79.5725C46.3312 79.0985 46.6595 78.7109 46.8157 78.7109C46.9719 78.7109 47.3002 79.0985 47.545 79.5725ZM15.9897 79.7671C15.9897 79.8539 16.9325 81.1204 18.0847 82.5809C19.2369 84.0417 20.1797 85.4064 20.1797 85.6135C20.1797 85.8209 19.3483 87.0797 18.3322 88.4112C17.3159 89.7424 16.3567 91.0003 16.2004 91.2059C15.9763 91.5013 16.8996 91.58 20.5921 91.58H25.2675V85.5944V79.6088H20.6286C18.0772 79.6088 15.9897 79.68 15.9897 79.7671ZM35.9186 80.357C36.0517 80.8876 36.3094 81.1052 36.8044 81.1052C37.7436 81.1052 37.9399 81.5179 37.2833 82.1122C36.9134 82.4468 36.7856 82.8862 36.8769 83.5087C37.0065 84.3916 36.9885 84.4068 36.2265 84.0597C35.6348 83.79 35.2598 83.7861 34.6948 84.0435C33.9858 84.3667 33.9466 84.3368 33.9466 83.4716C33.9466 82.9697 33.7446 82.3568 33.4977 82.1099C32.8414 81.4535 32.9473 81.1052 33.8032 81.1052C34.318 81.1052 34.6664 80.8669 34.8989 80.357C35.0863 79.9454 35.3502 79.6088 35.4852 79.6088C35.6205 79.6088 35.8153 79.9454 35.9186 80.357ZM58.7325 80.357C58.965 80.8669 59.3134 81.1052 59.8281 81.1052C60.6841 81.1052 60.79 81.4535 60.1337 82.1099C59.8868 82.3568 59.6848 82.9697 59.6848 83.4716C59.6848 84.3368 59.6456 84.3667 58.9366 84.0435C58.3715 83.7861 57.9965 83.79 57.4049 84.0597C56.6429 84.4068 56.6249 84.3916 56.7545 83.5087C56.8458 82.8862 56.718 82.4468 56.3481 82.1122C55.7193 81.5433 55.8794 81.1052 56.7159 81.1052C57.052 81.1052 57.4491 80.7849 57.6443 80.357C57.8316 79.9454 58.0767 79.6088 58.1884 79.6088C58.3 79.6088 58.5451 79.9454 58.7325 80.357ZM68.3639 85.5944V91.58H73.0393C76.7318 91.58 77.6551 91.5013 77.4309 91.2059C77.2747 91.0003 76.3155 89.7424 75.2992 88.4112C74.2831 87.0797 73.4517 85.8209 73.4517 85.6135C73.4517 85.4064 74.3944 84.0417 75.5467 82.5809C76.6989 81.1204 77.6416 79.8539 77.6416 79.7671C77.6416 79.68 75.5542 79.6088 73.0028 79.6088H68.3639V85.5944Z" fill="url(#paint0_linear_13_11246)"/>
<defs>
<linearGradient id="paint0_linear_13_11246" x1="13.0502" y1="3.33885" x2="88.6996" y2="66.4999" gradientUnits="userSpaceOnUse">
<stop stop-color="#0076BE"/>
<stop offset="1" stop-color="#48BF91"/>
</linearGradient>
</defs>
</svg>
