<svg width="160" height="140" viewBox="0 0 160 140" fill="none" xmlns="http://www.w3.org/2000/svg">
<path fill-rule="evenodd" clip-rule="evenodd" d="M79.9698 4.26476C74.7863 12.4935 72.5958 14.815 68.021 16.9288C63.8048 18.8769 59.7214 19.546 52.94 19.4006L48.4151 19.3036L48.1 20.7743C47.0486 25.6834 46.1663 35.923 46.4474 39.954C47.3078 52.2964 50.0118 61.1949 55.4758 69.6646C57.2723 72.4497 60.6842 76.8862 61.043 76.9042C61.1663 76.9101 61.2675 76.1745 61.2675 75.2692V73.6231H63.3732H65.4789L63.4687 71.1541C57.0141 63.2273 53.4574 54.7065 52.2726 44.3325C51.8631 40.7477 52.0373 31.7109 52.5913 27.8017L52.9561 25.2264L56.8875 25.0495C62.757 24.7853 66.8577 23.8306 70.9941 21.7646C75.2331 19.6475 79.7074 15.6596 81.6494 12.2678C82.2087 11.2916 82.7334 10.4925 82.8157 10.4925C82.898 10.4925 83.4298 11.3035 83.9972 12.2945C85.9246 15.6596 90.4141 19.6553 94.6373 21.7646C98.7737 23.8306 102.874 24.7853 108.744 25.0495L112.675 25.2264L113.04 27.8017C113.594 31.7109 113.768 40.7477 113.359 44.3325C112.174 54.7065 108.617 63.2273 102.163 71.1541L100.152 73.6231H102.258H104.364V75.2692C104.364 76.1745 104.465 76.9101 104.588 76.9042C104.712 76.8979 105.632 75.854 106.633 74.5847C114.536 64.5624 118.167 54.5446 119.184 39.954C119.465 35.9197 118.581 25.6619 117.53 20.7743L117.214 19.3036L111.163 19.2875C104.301 19.2689 101.695 18.8161 97.6211 16.9339C93.0346 14.8147 90.8484 12.4986 85.6616 4.26476C84.184 1.91899 82.9034 0 82.8157 0C82.728 0 81.4474 1.91899 79.9698 4.26476ZM82.0085 24.1669C80.9497 25.8369 79.0489 28.283 78.1768 29.0982C77.0743 30.1289 73.5984 31.8288 71.6307 32.2999C70.8283 32.4917 68.9308 32.6489 67.4141 32.6489H64.6562L64.2848 34.2063C63.6988 36.6652 63.5258 42.7254 63.9529 45.849C65.0246 53.6916 68.985 61.2503 74.3562 65.7045C76.2222 67.2517 81.8218 70.331 82.7696 70.331C83.4014 70.331 88.0025 68.1032 89.5037 67.0704C91.4823 65.7093 94.4921 62.6108 96.2238 60.1528C100.876 53.5501 103.061 43.0435 101.421 35.1655L100.922 32.7713L98.079 32.6938C94.8213 32.6049 92.4825 32.0823 90.2274 30.9406C87.7652 29.6935 86.894 28.8941 84.8658 26.0204C83.8267 24.5482 82.8761 23.3439 82.7534 23.3439C82.6307 23.3439 82.2955 23.7141 82.0085 24.1669ZM94.3799 41.9918C94.0734 42.1879 93.2528 42.7176 92.5558 43.1686C90.1478 44.7276 84.7338 50.7638 81.8759 55.0755L81.3854 55.8159L80.6869 54.9181C79.6475 53.5824 77.124 51.1821 75.9322 50.3953C75.3561 50.015 74.1656 49.5205 73.2866 49.2964L71.6884 48.8888L73.5565 48.0505C75.7972 47.0449 77.7094 47.1086 79.9836 48.2645L81.4201 48.9944L83.0919 47.2858C86.2107 44.0985 90.9232 41.7371 94.338 41.6503C94.9129 41.636 94.9144 41.6495 94.3799 41.9918ZM64.8588 82.003V87.3901H82.8157H100.773V82.003V76.616H82.8157H64.8588V82.003ZM83.545 79.5725C84.0266 80.5033 84.5509 80.8059 85.6834 80.8059C86.6426 80.8059 86.6115 81.5008 85.6232 82.1485C84.928 82.604 84.8562 82.809 84.9867 83.9666C85.0675 84.6843 85.063 85.3424 84.9762 85.4289C84.8897 85.5157 84.3681 85.308 83.8174 84.9674L82.8157 84.3485L81.814 84.9674C80.6106 85.7111 80.3742 85.5474 80.6004 84.1267C80.7432 83.2313 80.642 82.9287 79.998 82.325C79.0268 81.4143 79.0067 80.8059 79.948 80.8059C81.0805 80.8059 81.6048 80.5033 82.0863 79.5725C82.3312 79.0985 82.6595 78.7109 82.8157 78.7109C82.9719 78.7109 83.3002 79.0985 83.545 79.5725ZM51.9897 79.7671C51.9897 79.8539 52.9325 81.1204 54.0847 82.5809C55.2369 84.0417 56.1797 85.4064 56.1797 85.6135C56.1797 85.8209 55.3483 87.0797 54.3322 88.4112C53.3159 89.7424 52.3567 91.0003 52.2004 91.2059C51.9763 91.5013 52.8996 91.58 56.5921 91.58H61.2675V85.5944V79.6088H56.6286C54.0772 79.6088 51.9897 79.68 51.9897 79.7671ZM71.9186 80.357C72.0517 80.8876 72.3094 81.1052 72.8044 81.1052C73.7436 81.1052 73.9399 81.5179 73.2833 82.1122C72.9134 82.4468 72.7856 82.8862 72.8769 83.5087C73.0065 84.3916 72.9885 84.4068 72.2265 84.0597C71.6348 83.79 71.2598 83.7861 70.6948 84.0435C69.9858 84.3667 69.9466 84.3368 69.9466 83.4716C69.9466 82.9697 69.7446 82.3568 69.4977 82.1099C68.8414 81.4535 68.9473 81.1052 69.8032 81.1052C70.318 81.1052 70.6664 80.8669 70.8989 80.357C71.0863 79.9454 71.3502 79.6088 71.4852 79.6088C71.6205 79.6088 71.8153 79.9454 71.9186 80.357ZM94.7325 80.357C94.965 80.8669 95.3134 81.1052 95.8281 81.1052C96.6841 81.1052 96.79 81.4535 96.1337 82.1099C95.8868 82.3568 95.6848 82.9697 95.6848 83.4716C95.6848 84.3368 95.6456 84.3667 94.9366 84.0435C94.3715 83.7861 93.9965 83.79 93.4049 84.0597C92.6429 84.4068 92.6249 84.3916 92.7545 83.5087C92.8458 82.8862 92.718 82.4468 92.3481 82.1122C91.7193 81.5433 91.8794 81.1052 92.7159 81.1052C93.052 81.1052 93.4491 80.7849 93.6443 80.357C93.8316 79.9454 94.0767 79.6088 94.1884 79.6088C94.3 79.6088 94.5451 79.9454 94.7325 80.357ZM104.364 85.5944V91.58H109.039C112.732 91.58 113.655 91.5013 113.431 91.2059C113.275 91.0003 112.316 89.7424 111.299 88.4112C110.283 87.0797 109.452 85.8209 109.452 85.6135C109.452 85.4064 110.394 84.0417 111.547 82.5809C112.699 81.1204 113.642 79.8539 113.642 79.7671C113.642 79.68 111.554 79.6088 109.003 79.6088H104.364V85.5944Z" fill="url(#paint0_linear_13_11245)"/>
<g opacity="0.3" filter="url(#filter0_f_13_11245)">
<ellipse cx="79.8945" cy="105" rx="55.5" ry="11" fill="url(#paint1_linear_13_11245)"/>
</g>
<defs>
<filter id="filter0_f_13_11245" x="0.394531" y="70" width="159" height="70" filterUnits="userSpaceOnUse" color-interpolation-filters="sRGB">
<feFlood flood-opacity="0" result="BackgroundImageFix"/>
<feBlend mode="normal" in="SourceGraphic" in2="BackgroundImageFix" result="shape"/>
<feGaussianBlur stdDeviation="12" result="effect1_foregroundBlur_13_11245"/>
</filter>
<linearGradient id="paint0_linear_13_11245" x1="49.0502" y1="3.33885" x2="124.7" y2="66.4999" gradientUnits="userSpaceOnUse">
<stop stop-color="#0076BE"/>
<stop offset="1" stop-color="#48BF91"/>
</linearGradient>
<linearGradient id="paint1_linear_13_11245" x1="28.4414" y1="94.8021" x2="35.176" y2="130.47" gradientUnits="userSpaceOnUse">
<stop stop-color="#0076BE"/>
<stop offset="1" stop-color="#48BF91"/>
</linearGradient>
</defs>
</svg>
